<?xml version="1.0" encoding="UTF-8"?>
<svg xmlns="http://www.w3.org/2000/svg" xmlns:xlink="http://www.w3.org/1999/xlink" width="24px" height="24px" viewBox="0 0 24 24" version="1.1">
<defs>
<linearGradient id="linear0" gradientUnits="userSpaceOnUse" x1="32" y1="32.0001" x2="221.615" y2="253.218" gradientTransform="matrix(0.09375,0,0,0.09375,0,0)">
<stop offset="0" style="stop-color:rgb(9.411765%,94.509804%,100%);stop-opacity:1;"/>
<stop offset="1" style="stop-color:rgb(29.411765%,61.960784%,100%);stop-opacity:1;"/>
</linearGradient>
<linearGradient id="linear1" gradientUnits="userSpaceOnUse" x1="102" y1="102" x2="220.685" y2="251.815" gradientTransform="matrix(0.09375,0,0,0.09375,0,0)">
<stop offset="0" style="stop-color:rgb(100%,84.705882%,4.705882%);stop-opacity:1;"/>
<stop offset="1" style="stop-color:rgb(100%,61.960784%,4.705882%);stop-opacity:1;"/>
</linearGradient>
<linearGradient id="linear2" gradientUnits="userSpaceOnUse" x1="59.2094" y1="32" x2="80.1919" y2="221.679" gradientTransform="matrix(0.09375,0,0,0.09375,0,0)">
<stop offset="0" style="stop-color:rgb(18.823529%,51.372549%,100%);stop-opacity:1;"/>
<stop offset="1" style="stop-color:rgb(2.352941%,18.039216%,100%);stop-opacity:1;"/>
</linearGradient>
<linearGradient id="linear3" gradientUnits="userSpaceOnUse" x1="96" y1="32" x2="180.689" y2="143.636" gradientTransform="matrix(0.09375,0,0,0.09375,0,0)">
<stop offset="0" style="stop-color:rgb(9.411765%,94.509804%,100%);stop-opacity:1;"/>
<stop offset="1" style="stop-color:rgb(29.411765%,61.960784%,100%);stop-opacity:1;"/>
</linearGradient>
<linearGradient id="linear4" gradientUnits="userSpaceOnUse" x1="96" y1="32" x2="180.689" y2="143.636" gradientTransform="matrix(0.09375,0,0,0.09375,0,0)">
<stop offset="0" style="stop-color:rgb(100%,84.705882%,4.705882%);stop-opacity:1;"/>
<stop offset="1" style="stop-color:rgb(100%,61.960784%,4.705882%);stop-opacity:1;"/>
</linearGradient>
<filter id="alpha" filterUnits="objectBoundingBox" x="0%" y="0%" width="100%" height="100%">
  <feColorMatrix type="matrix" in="SourceGraphic" values="0 0 0 0 1 0 0 0 0 1 0 0 0 0 1 0 0 0 1 0"/>
</filter>
<mask id="mask0">
  <g filter="url(#alpha)">
<rect x="0" y="0" width="24" height="24" style="fill:rgb(0%,0%,0%);fill-opacity:0.4;stroke:none;"/>
  </g>
</mask>
<clipPath id="clip1">
  <rect x="0" y="0" width="24" height="24"/>
</clipPath>
<g id="surface5" clip-path="url(#clip1)">
<path style="fill:none;stroke-width:0.5;stroke-linecap:butt;stroke-linejoin:miter;stroke:rgb(20%,30.196078%,45.882353%);stroke-opacity:1;stroke-miterlimit:4;" d="M 8 240 L 248 240 " transform="matrix(0.09375,0,0,0.09375,0,0)"/>
<path style="fill:none;stroke-width:0.5;stroke-linecap:butt;stroke-linejoin:miter;stroke:rgb(20%,30.196078%,45.882353%);stroke-opacity:1;stroke-miterlimit:4;" d="M 8 16 L 248 16 " transform="matrix(0.09375,0,0,0.09375,0,0)"/>
<path style="fill:none;stroke-width:0.5;stroke-linecap:butt;stroke-linejoin:miter;stroke:rgb(20%,30.196078%,45.882353%);stroke-opacity:1;stroke-miterlimit:4;" d="M 240 248 L 240 8 " transform="matrix(0.09375,0,0,0.09375,0,0)"/>
<path style="fill:none;stroke-width:0.5;stroke-linecap:butt;stroke-linejoin:miter;stroke:rgb(20%,30.196078%,45.882353%);stroke-opacity:1;stroke-miterlimit:4;" d="M 16 248 L 16 8 " transform="matrix(0.09375,0,0,0.09375,0,0)"/>
<path style="fill:none;stroke-width:0.5;stroke-linecap:round;stroke-linejoin:round;stroke:rgb(20%,30.196078%,45.882353%);stroke-opacity:1;stroke-dasharray:0.562786,0.503881;stroke-miterlimit:4;" d="M 12 32 L 207 32 " transform="matrix(0.09375,0,0,0.09375,0,0)"/>
<path style="fill:none;stroke-width:0.5;stroke-linecap:round;stroke-linejoin:round;stroke:rgb(20%,30.196078%,45.882353%);stroke-opacity:1;stroke-dasharray:0.562786,0.503881;stroke-miterlimit:4;" d="M 12 78 L 207 78 " transform="matrix(0.09375,0,0,0.09375,0,0)"/>
<path style="fill:none;stroke-width:0.5;stroke-linecap:round;stroke-linejoin:round;stroke:rgb(20%,30.196078%,45.882353%);stroke-opacity:1;stroke-dasharray:0.562786,0.503881;stroke-miterlimit:4;" d="M 12 224 L 244 224 " transform="matrix(0.09375,0,0,0.09375,0,0)"/>
<path style="fill:none;stroke-width:0.5;stroke-linecap:round;stroke-linejoin:round;stroke:rgb(20%,30.196078%,45.882353%);stroke-opacity:1;stroke-dasharray:0.562786,0.503881;stroke-miterlimit:4;" d="M 78 232 L 78 24 " transform="matrix(0.09375,0,0,0.09375,0,0)"/>
<path style="fill:none;stroke-width:0.5;stroke-linecap:round;stroke-linejoin:round;stroke:rgb(20%,30.196078%,45.882353%);stroke-opacity:1;stroke-dasharray:0.562786,0.503881;stroke-miterlimit:4;" d="M 212 138 L 212 38 " transform="matrix(0.09375,0,0,0.09375,0,0)"/>
<path style="fill:none;stroke-width:0.5;stroke-linecap:round;stroke-linejoin:round;stroke:rgb(20%,30.196078%,45.882353%);stroke-opacity:1;stroke-dasharray:0.562786,0.503881;stroke-miterlimit:4;" d="M 205 237 L 12 44 " transform="matrix(0.09375,0,0,0.09375,0,0)"/>
<path style="fill:none;stroke-width:0.5;stroke-linecap:round;stroke-linejoin:round;stroke:rgb(20%,30.196078%,45.882353%);stroke-opacity:1;stroke-dasharray:0.562786,0.503881;stroke-miterlimit:4;" d="M 128 176 L 216 88 " transform="matrix(0.09375,0,0,0.09375,0,0)"/>
<path style="fill:none;stroke-width:0.5;stroke-linecap:round;stroke-linejoin:round;stroke:rgb(20%,30.196078%,45.882353%);stroke-opacity:1;stroke-dasharray:0.562786,0.503881;stroke-miterlimit:4;" d="M 94 142 L 182 54 " transform="matrix(0.09375,0,0,0.09375,0,0)"/>
<path style="fill:none;stroke-width:0.5;stroke-linecap:round;stroke-linejoin:round;stroke:rgb(20%,30.196078%,45.882353%);stroke-opacity:1;stroke-dasharray:0.562786,0.503881;stroke-miterlimit:4;" d="M 244 212 L 51 19 " transform="matrix(0.09375,0,0,0.09375,0,0)"/>
<path style="fill:none;stroke-width:0.5;stroke-linecap:round;stroke-linejoin:round;stroke:rgb(20%,30.196078%,45.882353%);stroke-opacity:1;stroke-dasharray:0.562786,0.503881;stroke-miterlimit:4;" d="M 193 129 L 83 19 " transform="matrix(0.09375,0,0,0.09375,0,0)"/>
<path style="fill:none;stroke-width:0.5;stroke-linecap:round;stroke-linejoin:round;stroke:rgb(20%,30.196078%,45.882353%);stroke-opacity:1;stroke-dasharray:0.562786,0.503881;stroke-miterlimit:4;" d="M 220 100 L 139 19 " transform="matrix(0.09375,0,0,0.09375,0,0)"/>
<path style="fill:none;stroke-width:0.5;stroke-linecap:round;stroke-linejoin:round;stroke:rgb(20%,30.196078%,45.882353%);stroke-opacity:1;stroke-dasharray:0.562786,0.503881;stroke-miterlimit:4;" d="M 32 232 L 32 24 " transform="matrix(0.09375,0,0,0.09375,0,0)"/>
<path style="fill:none;stroke-width:0.5;stroke-linecap:butt;stroke-linejoin:miter;stroke:rgb(20%,30.196078%,45.882353%);stroke-opacity:1;stroke-miterlimit:4;" d="M 43.75 38 C 43.75 41.166667 41.166667 43.75 38 43.75 C 34.833333 43.75 32.25 41.166667 32.25 38 C 32.25 34.833333 34.833333 32.25 38 32.25 C 41.166667 32.25 43.75 34.833333 43.75 38 Z M 43.75 38 " transform="matrix(0.09375,0,0,0.09375,0,0)"/>
<path style="fill:none;stroke-width:0.5;stroke-linecap:butt;stroke-linejoin:miter;stroke:rgb(20%,30.196078%,45.882353%);stroke-opacity:1;stroke-miterlimit:4;" d="M 156.75 40 C 156.75 44.291667 153.291667 47.75 149 47.75 C 144.708333 47.75 141.25 44.291667 141.25 40 C 141.25 35.708333 144.708333 32.25 149 32.25 C 153.291667 32.25 156.75 35.708333 156.75 40 Z M 156.75 40 " transform="matrix(0.09375,0,0,0.09375,0,0)"/>
<path style="fill:none;stroke-width:0.5;stroke-linecap:butt;stroke-linejoin:miter;stroke:rgb(20%,30.196078%,45.882353%);stroke-opacity:1;stroke-miterlimit:4;" d="M 43.75 218 C 43.75 221.166667 41.166667 223.75 38 223.75 C 34.833333 223.75 32.25 221.166667 32.25 218 C 32.25 214.833333 34.833333 212.25 38 212.25 C 41.166667 212.25 43.75 214.833333 43.75 218 Z M 43.75 218 " transform="matrix(0.09375,0,0,0.09375,0,0)"/>
<path style="fill:none;stroke-width:0.5;stroke-linecap:butt;stroke-linejoin:miter;stroke:rgb(20%,30.196078%,45.882353%);stroke-opacity:1;stroke-miterlimit:4;" d="M 120.75 134 C 120.75 138.291667 117.291667 141.75 113 141.75 C 108.708333 141.75 105.25 138.291667 105.25 134 C 105.25 129.708333 108.708333 126.25 113 126.25 C 117.291667 126.25 120.75 129.708333 120.75 134 Z M 120.75 134 " transform="matrix(0.09375,0,0,0.09375,0,0)"/>
<path style="fill:none;stroke-width:0.5;stroke-linecap:butt;stroke-linejoin:miter;stroke:rgb(20%,30.196078%,45.882353%);stroke-opacity:1;stroke-miterlimit:4;" d="M 238.75 212 C 238.75 218.5 233.5 223.75 227 223.75 C 220.5 223.75 215.25 218.5 215.25 212 C 215.25 205.5 220.5 200.25 227 200.25 C 233.5 200.25 238.75 205.5 238.75 212 Z M 238.75 212 " transform="matrix(0.09375,0,0,0.09375,0,0)"/>
<path style="fill:none;stroke-width:0.5;stroke-linecap:butt;stroke-linejoin:miter;stroke:rgb(20%,30.196078%,45.882353%);stroke-opacity:1;stroke-miterlimit:4;" d="M 236.75 192 C 236.75 209.541667 222.541667 223.75 205 223.75 C 187.458333 223.75 173.25 209.541667 173.25 192 C 173.25 174.458333 187.458333 160.25 205 160.25 C 222.541667 160.25 236.75 174.458333 236.75 192 Z M 236.75 192 " transform="matrix(0.09375,0,0,0.09375,0,0)"/>
<path style="fill:none;stroke-width:0.5;stroke-linecap:butt;stroke-linejoin:miter;stroke:rgb(20%,30.196078%,45.882353%);stroke-opacity:1;stroke-miterlimit:4;" d="M 201.75 92 C 201.75 105.125 191.125 115.75 178 115.75 C 164.875 115.75 154.25 105.125 154.25 92 C 154.25 78.875 164.875 68.25 178 68.25 C 191.125 68.25 201.75 78.875 201.75 92 Z M 201.75 92 " transform="matrix(0.09375,0,0,0.09375,0,0)"/>
<path style="fill:none;stroke-width:0.5;stroke-linecap:butt;stroke-linejoin:miter;stroke:rgb(20%,30.196078%,45.882353%);stroke-opacity:1;stroke-miterlimit:4;" d="M 77.75 200 C 77.75 213.125 67.125 223.75 54 223.75 C 40.875 223.75 30.25 213.125 30.25 200 C 30.25 186.875 40.875 176.25 54 176.25 C 67.125 176.25 77.75 186.875 77.75 200 Z M 77.75 200 " transform="matrix(0.09375,0,0,0.09375,0,0)"/>
</g>
</defs>
<g id="surface1">
<path style=" stroke:none;fill-rule:nonzero;fill:url(#linear0);" d="M 17.121094 20.121094 L 10.09375 13.09375 C 9.800781 12.800781 9.800781 12.324219 10.09375 12.03125 L 12.5625 9.5625 L 22.078125 19.078125 C 22.789062 19.789062 22.285156 21 21.285156 21 L 19.242188 21 C 18.445312 21 17.683594 20.683594 17.121094 20.121094 Z M 17.121094 20.121094 "/>
<path style=" stroke:none;fill-rule:nonzero;fill:url(#linear1);" d="M 17.121094 20.121094 L 10.09375 13.09375 C 9.800781 12.800781 9.800781 12.324219 10.09375 12.03125 L 12.5625 9.5625 L 22.078125 19.078125 C 22.789062 19.789062 22.285156 21 21.285156 21 L 19.242188 21 C 18.445312 21 17.683594 20.683594 17.121094 20.121094 Z M 17.121094 20.121094 "/>
<path style=" stroke:none;fill-rule:evenodd;fill:url(#linear2);" d="M 3.5625 3 C 3.25 3 3 3.25 3 3.5625 L 3 20.4375 C 3 20.75 3.25 21 3.5625 21 L 5.0625 21 C 6.304688 21 7.3125 19.992188 7.3125 18.75 L 7.3125 7.3125 L 14.8125 7.3125 L 10.09375 12.03125 C 9.800781 12.324219 9.800781 12.800781 10.09375 13.09375 L 12.75 15.75 L 18.285156 10.214844 C 19.074219 9.425781 19.152344 8.191406 18.519531 7.3125 L 18.5625 7.3125 L 14.414062 3.164062 C 14.308594 3.058594 14.167969 3 14.015625 3 Z M 3.5625 3 "/>
<path style=" stroke:none;fill-rule:nonzero;fill:url(#linear3);" d="M 17.25 11.25 L 9 3 L 14.015625 3 C 14.167969 3 14.308594 3.058594 14.414062 3.164062 L 18.285156 7.035156 C 19.164062 7.914062 19.164062 9.335938 18.285156 10.214844 Z M 17.25 11.25 "/>
<path style=" stroke:none;fill-rule:nonzero;fill:url(#linear4);" d="M 17.25 11.25 L 9 3 L 14.015625 3 C 14.167969 3 14.308594 3.058594 14.414062 3.164062 L 18.285156 7.035156 C 19.164062 7.914062 19.164062 9.335938 18.285156 10.214844 Z M 17.25 11.25 "/>
<use xlink:href="#surface5" mask="url(#mask0)"/>
</g>
</svg>
