<svg width="256" height="256" viewBox="0 0 256 256" fill="none" xmlns="http://www.w3.org/2000/svg">
<path d="M182.627 214.627L107.657 139.657C104.533 136.533 104.533 131.467 107.657 128.343L134 102L235.515 203.515C243.074 211.074 237.72 224 227.029 224H205.255C196.768 224 188.629 220.629 182.627 214.627Z" fill="url(#paint0_linear_1111_27265)"/>
<path d="M182.627 214.627L107.657 139.657C104.533 136.533 104.533 131.467 107.657 128.343L134 102L235.515 203.515C243.074 211.074 237.72 224 227.029 224H205.255C196.768 224 188.629 220.629 182.627 214.627Z" fill="url(#paint1_linear_1111_27265)"/>
<path fill-rule="evenodd" clip-rule="evenodd" d="M38 32C34.6863 32 32 34.6863 32 38V78V218C32 221.314 34.6863 224 38 224H54C67.2548 224 78 213.255 78 200V78H158L107.657 128.343C104.533 131.467 104.533 136.533 107.657 139.657L136 168L195.029 108.971C203.466 100.534 204.309 87.379 197.557 78H198L195.029 75.0294L178 58L153.757 33.7574C152.632 32.6321 151.106 32 149.515 32H78H38Z" fill="url(#paint2_linear_1111_27265)"/>
<path d="M184 120L96 32H149.515C151.106 32 152.632 32.6321 153.757 33.7574L195.029 75.0294C204.402 84.402 204.402 99.598 195.029 108.971L184 120Z" fill="url(#paint3_linear_1111_27265)"/>
<path d="M184 120L96 32H149.515C151.106 32 152.632 32.6321 153.757 33.7574L195.029 75.0294C204.402 84.402 204.402 99.598 195.029 108.971L184 120Z" fill="url(#paint4_linear_1111_27265)"/>
<g style="mix-blend-mode:multiply" opacity="0.4">
<path d="M8 240H248" stroke="#334D75" stroke-width="0.5"/>
<path d="M8 16H248" stroke="#334D75" stroke-width="0.5"/>
<path d="M240 248L240 8" stroke="#334D75" stroke-width="0.5"/>
<path d="M16 248L16 8" stroke="#334D75" stroke-width="0.5"/>
<path d="M12 32H207" stroke="#334D75" stroke-width="0.5" stroke-linecap="round" stroke-linejoin="round" stroke-dasharray="0.2 2"/>
<path d="M12 78H207" stroke="#334D75" stroke-width="0.5" stroke-linecap="round" stroke-linejoin="round" stroke-dasharray="0.2 2"/>
<path d="M12 224H244" stroke="#334D75" stroke-width="0.5" stroke-linecap="round" stroke-linejoin="round" stroke-dasharray="0.2 2"/>
<path d="M78 232L78 24" stroke="#334D75" stroke-width="0.5" stroke-linecap="round" stroke-linejoin="round" stroke-dasharray="0.2 2"/>
<path d="M212 138V38" stroke="#334D75" stroke-width="0.5" stroke-linecap="round" stroke-linejoin="round" stroke-dasharray="0.2 2"/>
<path d="M205 237L12 44" stroke="#334D75" stroke-width="0.5" stroke-linecap="round" stroke-linejoin="round" stroke-dasharray="0.2 2"/>
<path d="M128 176L216 88" stroke="#334D75" stroke-width="0.5" stroke-linecap="round" stroke-linejoin="round" stroke-dasharray="0.2 2"/>
<path d="M94 142L182 54" stroke="#334D75" stroke-width="0.5" stroke-linecap="round" stroke-linejoin="round" stroke-dasharray="0.2 2"/>
<path d="M244 212L51 19" stroke="#334D75" stroke-width="0.5" stroke-linecap="round" stroke-linejoin="round" stroke-dasharray="0.2 2"/>
<path d="M193 129L83 19" stroke="#334D75" stroke-width="0.5" stroke-linecap="round" stroke-linejoin="round" stroke-dasharray="0.2 2"/>
<path d="M220 100L139 19" stroke="#334D75" stroke-width="0.5" stroke-linecap="round" stroke-linejoin="round" stroke-dasharray="0.2 2"/>
<path d="M32 232L32 24" stroke="#334D75" stroke-width="0.5" stroke-linecap="round" stroke-linejoin="round" stroke-dasharray="0.2 2"/>
<circle cx="38" cy="38" r="5.75" stroke="#334D75" stroke-width="0.5"/>
<circle cx="149" cy="40" r="7.75" stroke="#334D75" stroke-width="0.5"/>
<circle cx="38" cy="218" r="5.75" stroke="#334D75" stroke-width="0.5"/>
<circle cx="113" cy="134" r="7.75" stroke="#334D75" stroke-width="0.5"/>
<circle cx="227" cy="212" r="11.75" stroke="#334D75" stroke-width="0.5"/>
<circle cx="205" cy="192" r="31.75" stroke="#334D75" stroke-width="0.5"/>
<circle cx="178" cy="92" r="23.75" stroke="#334D75" stroke-width="0.5"/>
<circle cx="54" cy="200" r="23.75" stroke="#334D75" stroke-width="0.5"/>
</g>
<defs>
<linearGradient id="paint0_linear_1111_27265" x1="32" y1="32.0001" x2="221.615" y2="253.218" gradientUnits="userSpaceOnUse">
<stop stop-color="#18F1FF"/>
<stop offset="1" stop-color="#4B9EFF"/>
</linearGradient>
<linearGradient id="paint1_linear_1111_27265" x1="102" y1="102" x2="220.685" y2="251.815" gradientUnits="userSpaceOnUse">
<stop stop-color="#FFD80C"/>
<stop offset="1" stop-color="#FF9E0C"/>
</linearGradient>
<linearGradient id="paint2_linear_1111_27265" x1="59.2094" y1="32" x2="80.1919" y2="221.679" gradientUnits="userSpaceOnUse">
<stop stop-color="#3083FF"/>
<stop offset="1" stop-color="#062EFF"/>
</linearGradient>
<linearGradient id="paint3_linear_1111_27265" x1="96" y1="32" x2="180.689" y2="143.636" gradientUnits="userSpaceOnUse">
<stop stop-color="#18F1FF"/>
<stop offset="1" stop-color="#4B9EFF"/>
</linearGradient>
<linearGradient id="paint4_linear_1111_27265" x1="96" y1="32" x2="180.689" y2="143.636" gradientUnits="userSpaceOnUse">
<stop stop-color="#FFD80C"/>
<stop offset="1" stop-color="#FF9E0C"/>
</linearGradient>
</defs>
</svg>
